<svg xmlns="http://www.w3.org/2000/svg" width="512" height="512" viewBox="0 0 135.47 135.47"><path d="M28.32 88.47c-.3-.22-.35-4.47-.3-25.4l.08-25.13 6.22-.14 6.21-.13.07-6.08c.06-4.71.15-6.15.42-6.35.22-.17 2.69-.24 6.48-.2l6.13.08V37.8l-6.28.08-6.29.07v37.83l5.92.07c4.15.05 6.03-.02 6.29-.23.3-.25.36-2.5.36-12.7V50.5h12.7v12.4c0 10.2.06 12.45.36 12.7.26.21 2.14.28 6.29.23l5.92-.07V37.94l-6.29-.07-6.28-.08V25.12l6.13-.07c3.79-.05 6.26.02 6.48.19.27.2.37 1.64.42 6.35l.07 6.08 6.21.13 6.22.14.07 25.2c.05 20.03 0 25.24-.26 25.34-.7.27-62.99.26-63.35 0z" fill="#b07ce0"/><path d="M33.12 135.51a3.11 3.11 0 0 1-1.3-.36 1.02 1.02 0 0 0-.63-.24c-.89 0-3.88-1.74-5.37-3.11-6.78-6.28-8.9-18.31-5.12-28.9.39-1.1 1.36-3.21 2.15-4.7.8-1.49 1.38-2.81 1.3-2.94a17 17 0 0 0-2.34-1.47 40.7 40.7 0 0 1-13-11.88A45.72 45.72 0 0 1 2.5 65.98c-.76-4.46-1.05-7.23-.9-8.51.93-8.29 2.19-12.9 5.05-18.6a57.46 57.46 0 0 1 11.87-15.7c1.85-1.64 2.17-2.09 3.97-5.55C29.21 4.71 34.76-.5 40.28.92c1.72.45 4.41 1.82 6.07 3.1a78.9 78.9 0 0 1 7.99 7.92L56.06 14H66l1.28-1.52a81.63 81.63 0 0 1 7.91-8A19.57 19.57 0 0 1 81.8.93C87.4-.52 93.45 5.3 100.1 18.59c1.08 2.15 1.58 2.78 4.57 5.72 5.83 5.75 10.1 12.04 12.58 18.52.76 2 .7 1.95 3.12 2.23 2.92.34 6.06 2.7 7.5 5.63.69 1.4.76 1.8.76 4.31 0 2.34-.1 2.97-.59 3.97-1.72 3.47-2.74 4.55-5 5.3-2.14.72-2.75 1.44-2.74 3.27 0 1.95.59 4.14 2.11 7.97a44.45 44.45 0 0 1 2.5 25.46c-3.06 15.27-13 26.74-25.39 29.3-1.8.37-2.25.58-3.29 1.55a14.66 14.66 0 0 1-4.83 3.04l-1.66.7-27.79.03c-15.28.02-28.25-.02-28.84-.08zm57.68-5.63c.73-.36 2.05-1.4 2.94-2.32 1.45-1.47 1.73-1.65 2.67-1.65 1.75 0 5.1-.98 7.62-2.23 8.05-3.99 14.1-12.92 16.34-24.1a42.26 42.26 0 0 0-.78-17.85c-.67-2.4-2.23-6.09-2.55-6.09-.17 0-.94 1.24-1.71 2.74a39.48 39.48 0 0 1-3.12 4.96c-.94 1.22-1.88 2.47-2.1 2.77-.33.47-.34.96-.08 3.42 1 9.16-3.07 19.47-9.35 23.67a8.58 8.58 0 0 1-1.92 1.07c-.22 0-.34-.67-.38-2.13-.1-4.56-1.25-8-4.67-14.01a23.3 23.3 0 0 1-1.6-3.44c-.25-.8-.68-1.8-.95-2.25a4.34 4.34 0 0 1-.49-.96c0-.1.69-.44 1.52-.77 5.4-2.15 9.38-4.83 12.96-8.76 3.81-4.18 5.43-7 7.2-12.5 1.48-4.63 1.69-5.98 1.7-11 0-4.44-.03-4.77-.87-7.81a262.9 262.9 0 0 1-1.07-3.97c-.57-2.34-3.42-7.7-6-11.29-1.7-2.36-3.33-4.1-6.93-7.44-2.36-2.18-2.55-2.45-4.32-5.93-3.19-6.28-5.71-10.25-8.18-12.9-2.03-2.16-2.92-2.5-4.62-1.75-2.5 1.1-6.57 4.93-11 10.34l-1.95 2.37H52.97l-1.85-2.3a90.13 90.13 0 0 0-5.3-5.78c-2.7-2.72-3.83-3.65-5.19-4.32-2.1-1.04-2.64-.96-4.45.67-2.44 2.2-5.35 6.65-8.96 13.72-1.9 3.7-1.9 3.71-4.93 6.48C14.92 35.3 10.2 43.32 8.46 52.1a46.7 46.7 0 0 0-.1 12.17 51.64 51.64 0 0 0 3.07 9.69c3.36 7.36 10.12 13.58 17.92 16.5 1.64.61 1.97.91 1.6 1.4-.14.18-.7 1.52-1.27 2.97a52.24 52.24 0 0 1-2.26 4.94 56.45 56.45 0 0 0-2.04 4.23c-3.65 8.8-1.42 20.97 4.59 25.1 2.37 1.64.59 1.55 31.33 1.5l28.18-.05zM103 103.1c1.78-3.45 3.22-11.6 2.12-12.02-.2-.07-1.36.51-2.57 1.3-1.22.8-2.72 1.7-3.33 2-.6.3-1.18.68-1.28.83-.09.16.6 1.8 1.53 3.65a61.4 61.4 0 0 1 2 4.22c.37 1.1.97 1.1 1.53.02zm19.59-44.53c1.25-1.3 1.56-2.3 1.36-4.38-.2-2.03-2.2-4.22-3.87-4.22-.56 0-.61.08-.47.86.38 2 .68 4.95.69 6.7 0 2.7.49 2.92 2.29 1.04z" fill="#4d4d4d"/><g fill="#f0f0f0"><path d="M37.02 130.5c-3.48-.09-4.92-.25-5.77-.64a11.9 11.9 0 0 1-3.14-2.5c-2.8-3.16-4.44-8.35-4.44-13.99 0-2.32.22-4.16.74-6.25.51-2.1 1.05-3.42 2.74-6.75a63.3 63.3 0 0 0 2.67-5.83c.3-.76.73-1.75.95-2.2.37-.8.38-.84.26-1.03-.16-.24-.7-.5-2.09-1.06A32.74 32.74 0 0 1 11.9 74.82a48.2 48.2 0 0 1-3-8.43c-.72-2.79-.8-3.66-.8-7.81 0-4.24.14-5.67.84-8.44A41.7 41.7 0 0 1 16 35.54a46.82 46.82 0 0 1 5.58-6.24c2.6-2.47 3.5-3.41 3.96-4.1.24-.37 1.05-1.84 1.8-3.28 2.77-5.32 4.62-8.42 6.5-10.88 1.54-2.02 3.24-3.61 4.2-3.93.93-.3 2.85.5 4.63 1.96.94.77 5.16 4.99 6.7 6.7.64.72 1.71 1.99 2.37 2.82l1.21 1.52h16.18l1.37-1.67c3.45-4.2 6-6.9 8.45-8.94a16.6 16.6 0 0 1 3.25-2.16c.52-.23.68-.26 1.25-.26.95 0 1.35.23 2.7 1.57 2.68 2.67 4.9 6.08 8.48 12.99 1.98 3.82 2.17 4.08 4.14 5.94A105.1 105.1 0 0 1 104 32.8a47.27 47.27 0 0 1 6.53 10.1 22.97 22.97 0 0 1 2.03 5.56c1.48 5.45 1.36 4.68 1.4 9 .06 5.74-.1 6.97-1.41 11.22-2 6.47-3.96 9.74-8.53 14.32-.92.92-2.05 1.97-2.63 2.43a34.34 34.34 0 0 1-8.33 4.87 61 61 0 0 0-1.91.83c-.59.29-.59.32-.07 1.25.3.54.55 1.12 1.22 2.88.29.74.94 2.1 1.56 3.2 2.52 4.5 3.72 7.5 4.19 10.5.19 1.2.22 1.55.32 3.3.08 1.66.15 2 .4 2 .33 0 1.96-1 3-1.83a21.21 21.21 0 0 0 5.24-6.78 30.15 30.15 0 0 0 3.02-10.04c.19-1.4.19-4.95 0-6.53-.17-1.52-.17-2.4.01-2.74.08-.15.73-1.05 1.45-2 1.83-2.42 2.6-3.6 3.93-6.08.4-.74.92-1.64 1.16-2l.42-.65.15.2c.4.48 1.55 3.2 2.13 5.02a38.55 38.55 0 0 1 1.63 11.86c0 2.9-.16 4.76-.63 7.07a42.58 42.58 0 0 1-4.4 12.08 41.6 41.6 0 0 1-3.1 4.58 36.43 36.43 0 0 1-4.5 4.5 24.7 24.7 0 0 1-8.38 4.3c-1.29.37-2.3.57-3.2.63-1.33.08-1.34.09-3.12 1.78a12.2 12.2 0 0 1-3.22 2.4l-.89.45-25.07.04c-13.8.02-26.11.01-27.38-.02zM88.8 88.6a46.1 46.1 0 0 0 2.91-.1c.21-.22.23-2.55.21-26.3 0-13.34-.02-24.27-.04-24.28-.01-.01-11.74-.27-12.22-.27h-.2l-.05-4.4c-.06-4.72-.14-6.93-.28-7.58-.07-.33-.13-.43-.3-.5-.23-.1-9.08-.18-11.22-.1l-1.32.06v12.65l1.51.06c.83.02 2.4.05 3.48.05s3.24.02 4.8.05l2.82.05V75.72l-2.55.05c-2.82.06-9.05.01-9.4-.08-.11-.03-.24-.12-.28-.2-.22-.4-.25-1.78-.28-13.24l-.04-11.75H53.6v10.25c0 10.45-.06 14-.24 14.56-.08.22-.16.32-.33.37-.32.1-6.3.16-9.4.1l-2.56-.06V37.99l2.82-.05c1.56-.03 3.72-.05 4.8-.05 1.08 0 2.65-.03 3.48-.05l1.51-.06V25.13l-1.33-.05c-2.13-.09-10.98-.01-11.22.1-.16.06-.22.16-.29.48-.14.64-.22 3.04-.28 7.67l-.05 4.33h-.2c-.34 0-12.2.24-12.22.26 0 0-.04 10-.06 22.24-.06 21.44-.02 27.16.17 28.04.06.25.08.27.48.32 1.2.18 51.07.23 60.13.07zM120.82 59.75c-.31-.07-.4-.5-.5-2.6-.12-2.24-.24-3.5-.54-5.5a9.83 9.83 0 0 1-.16-1.49c.07-.18.8-.16 1.3.03.56.21 1.36.84 1.82 1.41.79 1 1.12 1.84 1.2 3.1a4.59 4.59 0 0 1-.38 2.46c-.58 1.18-2.2 2.71-2.74 2.6z"/></g></svg>